<mxfile host="app.diagrams.net" agent="Mozilla/5.0 (Windows NT 10.0; Win64; x64) AppleWebKit/537.36 (KHTML, like Gecko) Chrome/135.0.0.0 Safari/537.36" version="26.2.13">
  <diagram name="Page-1" id="EVCxEooB--tThAIH8C7H">
    <mxGraphModel dx="1028" dy="556" grid="1" gridSize="10" guides="1" tooltips="1" connect="1" arrows="1" fold="1" page="1" pageScale="1" pageWidth="1169" pageHeight="1654" math="0" shadow="0">
      <root>
        <mxCell id="0" />
        <mxCell id="1" parent="0" />
        <mxCell id="hVTnoMYZ2rH9OH8xPNWf-6" value="" style="ellipse;html=1;shape=startState;fillColor=#000000;strokeColor=#ff0000;" vertex="1" parent="1">
          <mxGeometry x="430" y="10" width="30" height="30" as="geometry" />
        </mxCell>
        <mxCell id="hVTnoMYZ2rH9OH8xPNWf-7" value="" style="edgeStyle=orthogonalEdgeStyle;html=1;verticalAlign=bottom;endArrow=open;endSize=8;strokeColor=#ff0000;rounded=0;" edge="1" source="hVTnoMYZ2rH9OH8xPNWf-6" parent="1">
          <mxGeometry relative="1" as="geometry">
            <mxPoint x="445" y="100" as="targetPoint" />
          </mxGeometry>
        </mxCell>
        <mxCell id="hVTnoMYZ2rH9OH8xPNWf-8" value="Open Railway Reservation App" style="rounded=1;whiteSpace=wrap;html=1;" vertex="1" parent="1">
          <mxGeometry x="362.5" y="100" width="165" height="60" as="geometry" />
        </mxCell>
        <mxCell id="hVTnoMYZ2rH9OH8xPNWf-9" value="Enter credentials" style="rounded=1;whiteSpace=wrap;html=1;" vertex="1" parent="1">
          <mxGeometry x="385" y="200" width="120" height="60" as="geometry" />
        </mxCell>
        <mxCell id="hVTnoMYZ2rH9OH8xPNWf-10" value="" style="endArrow=classic;html=1;rounded=0;exitX=0.5;exitY=1;exitDx=0;exitDy=0;entryX=0.5;entryY=0;entryDx=0;entryDy=0;" edge="1" parent="1" source="hVTnoMYZ2rH9OH8xPNWf-8" target="hVTnoMYZ2rH9OH8xPNWf-9">
          <mxGeometry width="50" height="50" relative="1" as="geometry">
            <mxPoint x="400" y="270" as="sourcePoint" />
            <mxPoint x="450" y="200" as="targetPoint" />
          </mxGeometry>
        </mxCell>
        <mxCell id="hVTnoMYZ2rH9OH8xPNWf-13" style="edgeStyle=orthogonalEdgeStyle;rounded=0;orthogonalLoop=1;jettySize=auto;html=1;exitX=1;exitY=0.5;exitDx=0;exitDy=0;entryX=0.5;entryY=0;entryDx=0;entryDy=0;" edge="1" parent="1" source="hVTnoMYZ2rH9OH8xPNWf-12" target="hVTnoMYZ2rH9OH8xPNWf-46">
          <mxGeometry relative="1" as="geometry">
            <mxPoint x="580" y="1060" as="targetPoint" />
          </mxGeometry>
        </mxCell>
        <mxCell id="hVTnoMYZ2rH9OH8xPNWf-14" style="edgeStyle=orthogonalEdgeStyle;rounded=0;orthogonalLoop=1;jettySize=auto;html=1;" edge="1" parent="1" source="hVTnoMYZ2rH9OH8xPNWf-12">
          <mxGeometry relative="1" as="geometry">
            <mxPoint x="320" y="430" as="targetPoint" />
            <Array as="points">
              <mxPoint x="321" y="340" />
            </Array>
          </mxGeometry>
        </mxCell>
        <mxCell id="hVTnoMYZ2rH9OH8xPNWf-12" value="Is it valid?" style="rhombus;whiteSpace=wrap;html=1;" vertex="1" parent="1">
          <mxGeometry x="405" y="300" width="80" height="80" as="geometry" />
        </mxCell>
        <mxCell id="hVTnoMYZ2rH9OH8xPNWf-15" value="" style="endArrow=classic;html=1;rounded=0;exitX=0.5;exitY=1;exitDx=0;exitDy=0;entryX=0.5;entryY=0;entryDx=0;entryDy=0;" edge="1" parent="1" source="hVTnoMYZ2rH9OH8xPNWf-9" target="hVTnoMYZ2rH9OH8xPNWf-12">
          <mxGeometry width="50" height="50" relative="1" as="geometry">
            <mxPoint x="400" y="350" as="sourcePoint" />
            <mxPoint x="450" y="300" as="targetPoint" />
          </mxGeometry>
        </mxCell>
        <mxCell id="hVTnoMYZ2rH9OH8xPNWf-16" value="Search for the route" style="rounded=1;whiteSpace=wrap;html=1;" vertex="1" parent="1">
          <mxGeometry x="265" y="430" width="120" height="60" as="geometry" />
        </mxCell>
        <mxCell id="hVTnoMYZ2rH9OH8xPNWf-17" value="select the railway name" style="rounded=1;whiteSpace=wrap;html=1;" vertex="1" parent="1">
          <mxGeometry x="265" y="520" width="120" height="60" as="geometry" />
        </mxCell>
        <mxCell id="hVTnoMYZ2rH9OH8xPNWf-18" value="" style="endArrow=classic;html=1;rounded=0;exitX=0.442;exitY=1;exitDx=0;exitDy=0;exitPerimeter=0;entryX=0.45;entryY=0.033;entryDx=0;entryDy=0;entryPerimeter=0;" edge="1" parent="1" source="hVTnoMYZ2rH9OH8xPNWf-16" target="hVTnoMYZ2rH9OH8xPNWf-17">
          <mxGeometry width="50" height="50" relative="1" as="geometry">
            <mxPoint x="400" y="650" as="sourcePoint" />
            <mxPoint x="450" y="600" as="targetPoint" />
          </mxGeometry>
        </mxCell>
        <mxCell id="hVTnoMYZ2rH9OH8xPNWf-21" style="edgeStyle=orthogonalEdgeStyle;rounded=0;orthogonalLoop=1;jettySize=auto;html=1;" edge="1" parent="1" source="hVTnoMYZ2rH9OH8xPNWf-20">
          <mxGeometry relative="1" as="geometry">
            <mxPoint x="230" y="730" as="targetPoint" />
          </mxGeometry>
        </mxCell>
        <mxCell id="hVTnoMYZ2rH9OH8xPNWf-22" style="edgeStyle=orthogonalEdgeStyle;rounded=0;orthogonalLoop=1;jettySize=auto;html=1;" edge="1" parent="1">
          <mxGeometry relative="1" as="geometry">
            <mxPoint x="390" y="1280" as="targetPoint" />
            <mxPoint x="362.5" y="660" as="sourcePoint" />
            <Array as="points">
              <mxPoint x="417.25" y="660" />
            </Array>
          </mxGeometry>
        </mxCell>
        <mxCell id="hVTnoMYZ2rH9OH8xPNWf-20" value="available?" style="rhombus;whiteSpace=wrap;html=1;" vertex="1" parent="1">
          <mxGeometry x="283.75" y="610" width="82.5" height="80" as="geometry" />
        </mxCell>
        <mxCell id="hVTnoMYZ2rH9OH8xPNWf-23" value="Book the ticket" style="rounded=1;whiteSpace=wrap;html=1;" vertex="1" parent="1">
          <mxGeometry x="160" y="720" width="120" height="60" as="geometry" />
        </mxCell>
        <mxCell id="hVTnoMYZ2rH9OH8xPNWf-24" value="Yes" style="text;html=1;align=center;verticalAlign=middle;resizable=0;points=[];autosize=1;strokeColor=none;fillColor=none;" vertex="1" parent="1">
          <mxGeometry x="330" y="300" width="40" height="30" as="geometry" />
        </mxCell>
        <mxCell id="hVTnoMYZ2rH9OH8xPNWf-25" value="No" style="text;html=1;align=center;verticalAlign=middle;resizable=0;points=[];autosize=1;strokeColor=none;fillColor=none;" vertex="1" parent="1">
          <mxGeometry x="520" y="300" width="40" height="30" as="geometry" />
        </mxCell>
        <mxCell id="hVTnoMYZ2rH9OH8xPNWf-26" value="" style="endArrow=classic;html=1;rounded=0;exitX=0.5;exitY=1;exitDx=0;exitDy=0;entryX=0.5;entryY=0;entryDx=0;entryDy=0;" edge="1" parent="1" source="hVTnoMYZ2rH9OH8xPNWf-17" target="hVTnoMYZ2rH9OH8xPNWf-20">
          <mxGeometry width="50" height="50" relative="1" as="geometry">
            <mxPoint x="400" y="550" as="sourcePoint" />
            <mxPoint x="330" y="600" as="targetPoint" />
          </mxGeometry>
        </mxCell>
        <mxCell id="hVTnoMYZ2rH9OH8xPNWf-28" value="Payment Detals" style="rounded=1;whiteSpace=wrap;html=1;" vertex="1" parent="1">
          <mxGeometry x="160" y="830" width="120" height="60" as="geometry" />
        </mxCell>
        <mxCell id="hVTnoMYZ2rH9OH8xPNWf-29" value="" style="endArrow=classic;html=1;rounded=0;exitX=0.5;exitY=1;exitDx=0;exitDy=0;entryX=0.5;entryY=0;entryDx=0;entryDy=0;" edge="1" parent="1" source="hVTnoMYZ2rH9OH8xPNWf-23" target="hVTnoMYZ2rH9OH8xPNWf-28">
          <mxGeometry width="50" height="50" relative="1" as="geometry">
            <mxPoint x="400" y="850" as="sourcePoint" />
            <mxPoint x="450" y="800" as="targetPoint" />
          </mxGeometry>
        </mxCell>
        <mxCell id="hVTnoMYZ2rH9OH8xPNWf-30" value="Yes" style="text;html=1;align=center;verticalAlign=middle;resizable=0;points=[];autosize=1;strokeColor=none;fillColor=none;" vertex="1" parent="1">
          <mxGeometry x="240" y="610" width="40" height="30" as="geometry" />
        </mxCell>
        <mxCell id="hVTnoMYZ2rH9OH8xPNWf-31" value="No" style="text;html=1;align=center;verticalAlign=middle;resizable=0;points=[];autosize=1;strokeColor=none;fillColor=none;" vertex="1" parent="1">
          <mxGeometry x="385" y="620" width="40" height="30" as="geometry" />
        </mxCell>
        <mxCell id="hVTnoMYZ2rH9OH8xPNWf-36" style="edgeStyle=orthogonalEdgeStyle;rounded=0;orthogonalLoop=1;jettySize=auto;html=1;" edge="1" parent="1" source="hVTnoMYZ2rH9OH8xPNWf-34">
          <mxGeometry relative="1" as="geometry">
            <mxPoint x="120" y="1090" as="targetPoint" />
          </mxGeometry>
        </mxCell>
        <mxCell id="hVTnoMYZ2rH9OH8xPNWf-37" style="edgeStyle=orthogonalEdgeStyle;rounded=0;orthogonalLoop=1;jettySize=auto;html=1;" edge="1" parent="1" source="hVTnoMYZ2rH9OH8xPNWf-34">
          <mxGeometry relative="1" as="geometry">
            <mxPoint x="310" y="1080" as="targetPoint" />
          </mxGeometry>
        </mxCell>
        <mxCell id="hVTnoMYZ2rH9OH8xPNWf-34" value="Success?" style="rhombus;whiteSpace=wrap;html=1;" vertex="1" parent="1">
          <mxGeometry x="180" y="930" width="80" height="80" as="geometry" />
        </mxCell>
        <mxCell id="hVTnoMYZ2rH9OH8xPNWf-35" value="" style="endArrow=classic;html=1;rounded=0;exitX=0.5;exitY=1;exitDx=0;exitDy=0;entryX=0.5;entryY=0;entryDx=0;entryDy=0;" edge="1" parent="1" source="hVTnoMYZ2rH9OH8xPNWf-28" target="hVTnoMYZ2rH9OH8xPNWf-34">
          <mxGeometry width="50" height="50" relative="1" as="geometry">
            <mxPoint x="400" y="810" as="sourcePoint" />
            <mxPoint x="450" y="760" as="targetPoint" />
          </mxGeometry>
        </mxCell>
        <mxCell id="hVTnoMYZ2rH9OH8xPNWf-38" value="Yes" style="text;html=1;align=center;verticalAlign=middle;resizable=0;points=[];autosize=1;strokeColor=none;fillColor=none;" vertex="1" parent="1">
          <mxGeometry x="140" y="930" width="40" height="30" as="geometry" />
        </mxCell>
        <mxCell id="hVTnoMYZ2rH9OH8xPNWf-39" value="No" style="text;html=1;align=center;verticalAlign=middle;resizable=0;points=[];autosize=1;strokeColor=none;fillColor=none;" vertex="1" parent="1">
          <mxGeometry x="265" y="930" width="40" height="30" as="geometry" />
        </mxCell>
        <mxCell id="hVTnoMYZ2rH9OH8xPNWf-40" value="Ticket Booked SUccessfully" style="rounded=1;whiteSpace=wrap;html=1;" vertex="1" parent="1">
          <mxGeometry x="60" y="1090" width="120" height="60" as="geometry" />
        </mxCell>
        <mxCell id="hVTnoMYZ2rH9OH8xPNWf-41" value="Cancel Reservation" style="rounded=1;whiteSpace=wrap;html=1;" vertex="1" parent="1">
          <mxGeometry x="242.5" y="1080" width="120" height="60" as="geometry" />
        </mxCell>
        <mxCell id="hVTnoMYZ2rH9OH8xPNWf-42" value="" style="endArrow=classic;html=1;rounded=0;exitX=0.5;exitY=1;exitDx=0;exitDy=0;entryX=0.125;entryY=0.6;entryDx=0;entryDy=0;entryPerimeter=0;" edge="1" parent="1" source="hVTnoMYZ2rH9OH8xPNWf-41">
          <mxGeometry width="50" height="50" relative="1" as="geometry">
            <mxPoint x="400" y="1210" as="sourcePoint" />
            <mxPoint x="350" y="1280" as="targetPoint" />
            <Array as="points">
              <mxPoint x="303" y="1280" />
            </Array>
          </mxGeometry>
        </mxCell>
        <mxCell id="hVTnoMYZ2rH9OH8xPNWf-45" value="" style="rhombus;whiteSpace=wrap;html=1;" vertex="1" parent="1">
          <mxGeometry x="350" y="1240" width="40" height="80" as="geometry" />
        </mxCell>
        <mxCell id="hVTnoMYZ2rH9OH8xPNWf-46" value="Logout" style="rounded=1;whiteSpace=wrap;html=1;" vertex="1" parent="1">
          <mxGeometry x="527.5" y="1280" width="120" height="60" as="geometry" />
        </mxCell>
        <mxCell id="hVTnoMYZ2rH9OH8xPNWf-48" value="" style="endArrow=none;html=1;rounded=0;exitX=0.5;exitY=1;exitDx=0;exitDy=0;" edge="1" parent="1" source="hVTnoMYZ2rH9OH8xPNWf-45">
          <mxGeometry width="50" height="50" relative="1" as="geometry">
            <mxPoint x="420" y="1310" as="sourcePoint" />
            <mxPoint x="370" y="1370" as="targetPoint" />
          </mxGeometry>
        </mxCell>
        <mxCell id="hVTnoMYZ2rH9OH8xPNWf-49" value="" style="endArrow=classic;html=1;rounded=0;entryX=1;entryY=0.5;entryDx=0;entryDy=0;" edge="1" parent="1" target="hVTnoMYZ2rH9OH8xPNWf-61">
          <mxGeometry width="50" height="50" relative="1" as="geometry">
            <mxPoint x="370" y="1370" as="sourcePoint" />
            <mxPoint x="480" y="1400" as="targetPoint" />
          </mxGeometry>
        </mxCell>
        <mxCell id="hVTnoMYZ2rH9OH8xPNWf-51" value="" style="endArrow=none;html=1;rounded=0;exitX=0.583;exitY=1;exitDx=0;exitDy=0;exitPerimeter=0;" edge="1" parent="1" source="hVTnoMYZ2rH9OH8xPNWf-46">
          <mxGeometry width="50" height="50" relative="1" as="geometry">
            <mxPoint x="420" y="1310" as="sourcePoint" />
            <mxPoint x="600" y="1510" as="targetPoint" />
          </mxGeometry>
        </mxCell>
        <mxCell id="hVTnoMYZ2rH9OH8xPNWf-53" value="" style="endArrow=classic;html=1;rounded=0;entryX=1;entryY=0.5;entryDx=0;entryDy=0;" edge="1" parent="1" target="hVTnoMYZ2rH9OH8xPNWf-54">
          <mxGeometry width="50" height="50" relative="1" as="geometry">
            <mxPoint x="600" y="1510" as="sourcePoint" />
            <mxPoint x="530" y="1400" as="targetPoint" />
          </mxGeometry>
        </mxCell>
        <mxCell id="hVTnoMYZ2rH9OH8xPNWf-54" value="" style="rhombus;whiteSpace=wrap;html=1;" vertex="1" parent="1">
          <mxGeometry x="485" y="1470" width="50" height="80" as="geometry" />
        </mxCell>
        <mxCell id="hVTnoMYZ2rH9OH8xPNWf-56" value="" style="ellipse;html=1;shape=endState;fillColor=#000000;strokeColor=#ff0000;" vertex="1" parent="1">
          <mxGeometry x="495" y="1590" width="30" height="30" as="geometry" />
        </mxCell>
        <mxCell id="hVTnoMYZ2rH9OH8xPNWf-57" value="Start" style="text;html=1;align=center;verticalAlign=middle;resizable=0;points=[];autosize=1;strokeColor=none;fillColor=none;" vertex="1" parent="1">
          <mxGeometry x="475" y="28" width="50" height="30" as="geometry" />
        </mxCell>
        <mxCell id="hVTnoMYZ2rH9OH8xPNWf-58" value="End" style="text;html=1;align=center;verticalAlign=middle;resizable=0;points=[];autosize=1;strokeColor=none;fillColor=none;" vertex="1" parent="1">
          <mxGeometry x="527.5" y="1580" width="40" height="30" as="geometry" />
        </mxCell>
        <mxCell id="hVTnoMYZ2rH9OH8xPNWf-59" value="Print Receipt" style="rounded=1;whiteSpace=wrap;html=1;" vertex="1" parent="1">
          <mxGeometry x="60" y="1210" width="120" height="60" as="geometry" />
        </mxCell>
        <mxCell id="hVTnoMYZ2rH9OH8xPNWf-60" value="" style="endArrow=classic;html=1;rounded=0;exitX=0.5;exitY=1;exitDx=0;exitDy=0;entryX=0.5;entryY=0;entryDx=0;entryDy=0;" edge="1" parent="1" source="hVTnoMYZ2rH9OH8xPNWf-40" target="hVTnoMYZ2rH9OH8xPNWf-59">
          <mxGeometry width="50" height="50" relative="1" as="geometry">
            <mxPoint x="420" y="1310" as="sourcePoint" />
            <mxPoint x="470" y="1260" as="targetPoint" />
          </mxGeometry>
        </mxCell>
        <mxCell id="hVTnoMYZ2rH9OH8xPNWf-61" value="" style="rhombus;whiteSpace=wrap;html=1;" vertex="1" parent="1">
          <mxGeometry x="220" y="1330" width="60" height="80" as="geometry" />
        </mxCell>
        <mxCell id="hVTnoMYZ2rH9OH8xPNWf-62" value="" style="endArrow=classic;html=1;rounded=0;" edge="1" parent="1" target="hVTnoMYZ2rH9OH8xPNWf-61">
          <mxGeometry width="50" height="50" relative="1" as="geometry">
            <mxPoint x="120" y="1370" as="sourcePoint" />
            <mxPoint x="470" y="1140" as="targetPoint" />
          </mxGeometry>
        </mxCell>
        <mxCell id="hVTnoMYZ2rH9OH8xPNWf-63" value="" style="endArrow=none;html=1;rounded=0;entryX=0.5;entryY=1;entryDx=0;entryDy=0;" edge="1" parent="1" target="hVTnoMYZ2rH9OH8xPNWf-59">
          <mxGeometry width="50" height="50" relative="1" as="geometry">
            <mxPoint x="120" y="1370" as="sourcePoint" />
            <mxPoint x="470" y="1140" as="targetPoint" />
          </mxGeometry>
        </mxCell>
        <mxCell id="hVTnoMYZ2rH9OH8xPNWf-66" value="" style="endArrow=classic;html=1;rounded=0;exitX=0.5;exitY=1;exitDx=0;exitDy=0;" edge="1" parent="1" source="hVTnoMYZ2rH9OH8xPNWf-61">
          <mxGeometry width="50" height="50" relative="1" as="geometry">
            <mxPoint x="275" y="1350" as="sourcePoint" />
            <mxPoint x="485" y="1510" as="targetPoint" />
            <Array as="points">
              <mxPoint x="250" y="1510" />
            </Array>
          </mxGeometry>
        </mxCell>
        <mxCell id="hVTnoMYZ2rH9OH8xPNWf-67" value="" style="endArrow=classic;html=1;rounded=0;exitX=0.5;exitY=1;exitDx=0;exitDy=0;" edge="1" parent="1" source="hVTnoMYZ2rH9OH8xPNWf-54">
          <mxGeometry width="50" height="50" relative="1" as="geometry">
            <mxPoint x="420" y="1430" as="sourcePoint" />
            <mxPoint x="510" y="1590" as="targetPoint" />
          </mxGeometry>
        </mxCell>
      </root>
    </mxGraphModel>
  </diagram>
</mxfile>
